<svg width="51" height="51" viewBox="0 0 51 51" fill="none" xmlns="http://www.w3.org/2000/svg">
<path d="M9.35791 40.7344C9.48486 40.7344 9.61182 40.7217 9.73877 40.7026L20.4155 38.8301C20.5425 38.8047 20.6631 38.7476 20.752 38.6523L47.6597 11.7446C47.7185 11.6859 47.7652 11.6162 47.7971 11.5394C47.8289 11.4626 47.8453 11.3803 47.8453 11.2971C47.8453 11.214 47.8289 11.1317 47.7971 11.0549C47.7652 10.9781 47.7185 10.9083 47.6597 10.8496L37.1099 0.293457C36.9893 0.172852 36.8306 0.109375 36.6592 0.109375C36.4878 0.109375 36.3291 0.172852 36.2085 0.293457L9.30078 27.2012C9.20557 27.2964 9.14844 27.4106 9.12305 27.5376L7.25049 38.2144C7.18874 38.5544 7.2108 38.9044 7.31477 39.234C7.41874 39.5636 7.60148 39.8629 7.84717 40.106C8.26611 40.5122 8.79297 40.7344 9.35791 40.7344ZM13.6362 29.6641L36.6592 6.64746L41.312 11.3003L18.2891 34.3169L12.646 35.3135L13.6362 29.6641ZM48.8594 46.0664H2.14062C1.01709 46.0664 0.109375 46.9741 0.109375 48.0977V50.3828C0.109375 50.6621 0.337891 50.8906 0.617188 50.8906H50.3828C50.6621 50.8906 50.8906 50.6621 50.8906 50.3828V48.0977C50.8906 46.9741 49.9829 46.0664 48.8594 46.0664Z" fill="#FF5C00"/>
</svg>
